<?xml version="1.0" encoding="UTF-8"?><!DOCTYPE svg PUBLIC "-//W3C//DTD SVG 1.1//EN" "http://www.w3.org/Graphics/SVG/1.1/DTD/svg11.dtd"><svg viewBox="0 0 512 512" xmlns="http://www.w3.org/2000/svg" xmlns:xlink="http://www.w3.org/1999/xlink"><style>:root>svg{display:none}:root>svg:target{display:block}</style><svg viewBox="0 0 24 24" id="apple" xmlns="http://www.w3.org/2000/svg"><path d="M18.71 19.5c-.83 1.24-1.71 2.45-3.05 2.47-1.34.03-1.77-.79-3.29-.79-1.53 0-2 .77-3.27.82-1.31.05-2.3-1.32-3.14-2.53C4.25 17 2.94 12.45 4.7 9.39c.87-1.52 2.43-2.48 4.12-2.51 1.28-.02 2.5.87 3.29.87.78 0 2.26-1.07 3.81-.91.65.03 2.47.26 3.64 1.98-.09.06-2.17 1.28-2.15 3.81.03 3.02 2.65 4.03 2.68 4.04-.03.07-.42 1.44-1.38 2.83M13 3.5c.73-.83 1.94-1.46 2.94-1.5.13 1.17-.34 2.35-1.04 3.19-.69.85-1.83 1.51-2.95 1.42-.15-1.15.41-2.35 1.05-3.11z" fill="currentColor"/></svg><svg fill="none" viewBox="0 0 22 38" id="arrow-back" xmlns="http://www.w3.org/2000/svg"><path d="M1.232 17.232a2.5 2.5 0 000 3.536l15.91 15.91a2.5 2.5 0 003.536-3.536L6.536 19 20.678 4.858a2.5 2.5 0 00-3.536-3.536l-15.91 15.91zM4 16.5H3v5h1v-5z" fill="currentColor"/></svg><svg fill="none" viewBox="0 0 8 9" id="arrow-left" xmlns="http://www.w3.org/2000/svg"><path d="M7.884 7.647l.008-2.468.012-3.877c0-.382-.23-.759-.596-.971L7.03.169c-.367-.213-.807-.226-1.135-.033l-3.5 2.045L.438 3.325a.87.87 0 00-.436.759L0 4.674c-.001.382.23.759.596.971L2.462 6.73l.136-.008.884-.055.394.796.06.122 1.867 1.084c.367.212.806.226 1.135.034l.508-.297a.866.866 0 00.438-.758z" fill="currentColor"/></svg><svg viewBox="0 0 24 24" id="check" xmlns="http://www.w3.org/2000/svg"><path d="M9 20.42l-6.21-6.21 2.83-2.83L9 14.77l9.88-9.89 2.83 2.83L9 20.42z" fill="currentColor"/></svg><svg class="eionicon" viewBox="0 0 512 512" id="chrome" xmlns="http://www.w3.org/2000/svg"><path d="M188.8 255.93a67.2 67.2 0 1067.2-67.18 67.38 67.38 0 00-67.2 67.18z"/><path d="M476.75 217.79v.05a206.63 206.63 0 00-7-28.84h-.11a202.16 202.16 0 017.07 29 203.5 203.5 0 00-7.07-29h-155.4c19.05 17 31.36 40.17 31.36 67.05a86.55 86.55 0 01-12.31 44.73L231 478.45a2.44 2.44 0 010 .27v.28-.26a224 224 0 0025 1.26c6.84 0 13.61-.39 20.3-1a222.91 222.91 0 0029.78-4.74C405.68 451.52 480 362.4 480 255.94a225.25 225.25 0 00-3.25-38.15z"/><path d="M256 345.5c-33.6 0-61.6-17.91-77.29-44.79L76 123.05l-.14-.24A224 224 0 00207.4 474.55v-.05l77.69-134.6a84.13 84.13 0 01-29.09 5.6z"/><path d="M91.29 104.57l77.35 133.25A89.19 89.19 0 01256 166h205.17a246.51 246.51 0 00-25.78-43.94l.12.08A245.26 245.26 0 01461.17 166h.17a245.91 245.91 0 00-25.66-44 2.63 2.63 0 01-.35-.26 223.93 223.93 0 00-344.19-17.4l.14.24z" fill="currentColor"/></svg><svg viewBox="0 0 24 24" id="discord" xmlns="http://www.w3.org/2000/svg"><path d="M19.229 6.012c-.903-.73-2.015-1.246-2.872-1.572a.998.998 0 00-.923.111.997.997 0 00-.434.823c0 .346-.28.626-.626.626H9.625A.625.625 0 019 5.375a1 1 0 00-1.357-.934c-.86.329-1.978.85-2.894 1.59C3.831 6.882 2 11.861 2 16.165c0 .076.019.15.057.216 1.265 2.233 4.714 2.817 5.499 2.842l.014.001c.139 0 .286-.056.351-.18l.783-1.485a22.741 22.741 0 01-2.04-.617 1 1 0 11.67-1.884c3.526 1.254 5.624 1.253 9.345-.005a1.001 1.001 0 01.641 1.895c-.728.246-1.392.434-2.035.594l.793 1.503c.065.124.213.18.351.18l.014-.001c.786-.025 4.235-.61 5.499-2.843a.423.423 0 00.058-.217c0-4.303-1.831-9.282-2.771-10.152zM9.04 13.988c-.829 0-1.5-.893-1.5-1.996 0-1.102.671-1.996 1.5-1.996.832-.11 1.482.893 1.5 1.996 0 1.103-.671 1.996-1.5 1.996zm5.956.024c-.829 0-1.5-.895-1.5-2s.671-2 1.5-2 1.5.895 1.5 2-.671 2-1.5 2z" fill="currentColor"/></svg><svg class="gionicon" viewBox="0 0 512 512" id="linux" xmlns="http://www.w3.org/2000/svg"><path d="M443.66 405.05c-1.46-.79-2.85-1.54-4-2.2-6.47-3.83-13-10.52-11.85-17.83 2.42-15.94 2.89-23.47-.49-28.79a15.61 15.61 0 00-7.67-6.2v-.06c1.41-2.56 2.26-5.66 2.83-10.12 1.44-11-5-44-13.7-70.7-8.08-24.68-29.24-50-44.7-68.56l-3.61-4.34c-23.88-28.93-24.34-38.19-26.55-82.67-.32-6.47-.69-13.8-1.17-22C329.87 41.43 304 16 256 16c-25.2 0-44.62 7.15-57.72 21.26C187.79 48.55 182 64 182 80.78c0 29.52 2 53 2.15 54.29 1.4 35.7 1 41.22-8.31 57.55-2.23 3.93-8.38 10.87-14.89 18.21-8.48 9.57-18.09 20.41-23.36 29.22-3.77 6.31-5.88 12.63-8.11 19.33-3.4 10.21-7.26 21.78-18.15 36.57-12.57 17.07-15.52 29.61-11 47.45-4.94 6.45-4.83 14.37-4.75 20.23a25.84 25.84 0 01-.3 6.09c-2.29 7.59-12.42 9.4-22 10.18-1.58.12-3.1.21-4.55.29-7.26.39-13.53.74-17.13 6.3-3.47 5.36-1.12 13.8 2.14 25.48.72 2.58 1.46 5.25 2.19 8.06 1.83 7-.16 10.48-2.68 14.84-2.44 4.21-5.21 9-5.21 17.55 0 14.67 20 18 43.05 21.94 7.36 1.24 15 2.53 22.63 4.24a225.58 225.58 0 0134.08 10.68c9.72 3.73 17.4 6.68 26.43 6.68 16.18 0 28.25-9.77 39.92-19.21l2.15-1.75c5.53-4.49 21.5-4 34.34-3.64 3.46.1 6.73.2 9.65.2h6.22c13.48-.08 31.94-.18 42.23 2.5 3.75 1 6.2 3.72 9.29 7.19 5.87 6.56 13.17 14.75 33.39 14.75 19.39 0 29.55-8.71 41.32-18.8 7.16-6.13 14.56-12.48 25.07-17.86 3.92-2 7.62-3.87 11.08-5.61 22.64-11.38 35.11-17.65 35.11-27.82 0-9.91-12.24-16.5-20.34-20.86zM211.11 88.38a13.91 13.91 0 0112.47 9c1.95 5.55 1.81 10.42.21 12.94 0 0-.22-1-.36-1.44a14.85 14.85 0 00-6.44-8.59 11.35 11.35 0 00-8.94-1.47c-4.26 1.13-8.41 5-8.91 18.79-5.16-10.47-2.31-18 .92-23 2.31-3.73 7.47-6.33 11.05-6.23zm-17.5 375C192 479.24 175.2 479 170.09 478.59c-9.81-.82-21.66-4.69-33.13-8.43-4.52-1.47-9.19-3-13.73-4.34-13.2-3.89-30.12-6.74-43.72-9-3.22-.55-6.27-1.06-9.05-1.55s-4.61-1.27-5.2-2.3c-1-1.65.38-5.25 1.93-9.41C69.27 438 72.11 430.34 72 421c0-3.91-1.47-8.3-2.84-12.56-1.62-5-3.28-10.17-1.93-12.62 1.23-2.23 6.75-2.49 11.6-2.49h2.26c3.55 0 6.62.06 8.75-.53 6.51-1.81 14.86-6.92 17.81-13.88.9-2.17 1.37-6.94 2-14 .37-4.12.74-8.37 1.22-10.58a3.55 3.55 0 012.11-2.55c1.65-.77 6.78-1.91 18.63 4.08 11.18 5.65 22.88 25.84 34.2 45.37 3.56 6.14 6.92 11.94 10.3 17.36 14.04 22.54 18.83 31.6 17.5 44.8zm128.84-31.56a68.74 68.74 0 01-4.55 10.9.58.58 0 01-1.08-.42 56.61 56.61 0 002.11-18.43c-.25-4.73-.4-7.59-2.66-8.51s-4.26.83-9.45 5.54c-1.1 1-2.36 2.14-3.78 3.4-10.8 9.47-26.88 20.68-55.61 23.37-16.84 1.59-27.59-4.63-30.92-8.14a2.16 2.16 0 00-3.07-.08 2.23 2.23 0 00-.51 2.29c2.12 6.84 1.2 12.26-.49 16.19-.95 2.2-1.85 2.05-2-.34-.25-4.64-1-9.88-3-14.19-3.11-6.94-7-14.34-8.89-17.88v-.05c3.24-1.49 8.86-4.83 11.37-10.88s4.48-18-9.82-31.74c-6.28-6.05-22.1-17.16-36.06-27-10.9-7.65-22.17-15.56-23.65-17.51-4.49-5.89-6.37-9.3-6.94-19.65.07-2.3.13-4.59.19-6.89l.27-2.49a.58.58 0 011.15 0 63.07 63.07 0 002 9.72c1.08 3.73 2.4 7.58 3.62 9.18 3.19 4.22 7.56 7.39 11.67 8.49a5.48 5.48 0 005-.72c2.93-2.33 2.65-7.6 2.19-16.34-.47-9-1.11-21.34 1.85-34.55 5.62-25 10.91-32.51 17.61-42 .86-1.22 1.75-2.47 2.65-3.79 1.44-2.08 3-4.1 4.67-6.23 7.47-9.61 15.93-20.49 13.92-40.95-.51-5.19-.76-8.83-.86-11.39a1 1 0 011.88-.59l.49.77 1.21 2c4.86 8 13.64 22.57 25.1 22.57a13.62 13.62 0 002.36-.21c23.39-3.93 51.9-30.25 52.17-30.51 3.12-3 2.84-6.14 1.64-7.91a5.18 5.18 0 00-6.45-1.72c-3.29 1.4-7.14 3.15-11.22 5-13.82 6.27-37 16.75-42.25 14.34a23.11 23.11 0 01-6.32-5.13 1 1 0 011.14-1.65c5.59 2.29 9.55 1.45 14.2-.08l1-.34c9.37-3.09 14.2-4.77 30.76-12.08a97.55 97.55 0 0116.26-5.93c4-1 6.42-1.63 7.71-4.34a6.65 6.65 0 00-.5-7.13c-1.53-1.87-4.07-2.57-7-1.9-3.22.75-4.7 3-6.41 4.49-2.4 2.05-5 4.16-17.19 8.65-27 10-34.58 10.61-45.21 3.43-9.84-6.69-15.15-13.23-15.15-16 0-2.13 5.45-5.7 8.71-7.84 1.33-.87 2.59-1.69 3.62-2.46 4.34-3.22 13-11.39 13.38-11.73 5.4-5.41 17.91-2.18 25 2.58a2.23 2.23 0 001.72.41 2.14 2.14 0 001.68-2.58c-4.2-17.46-.13-27.34 4-32.55a22.58 22.58 0 0117.48-8.48c12.81 0 21.76 10 21.76 24.42 0 11-2.82 16.79-5.48 20.3a1.73 1.73 0 01-2.58.18 1.78 1.78 0 01-.24-2.2A24.61 24.61 0 00290 114a16.58 16.58 0 00-16.84-16.67c-3.94 0-13.48 1.5-16.77 15.44a29.81 29.81 0 00-.34 11.07l.08.71c.9 7.38 15.3 12.51 27.23 15.51 11.36 2.85 13 6.22 8.84 19.63s3.11 26.23 5.7 29.57a78.3 78.3 0 018.31 12.47 93.8 93.8 0 016.62 16.48c2.17 6.79 4.05 12.65 10.63 21.22 11.07 14.4 17.66 48.64 15 78-.21 2.41-.53 4.29-.77 5.67-.43 2.53-.72 4.2.66 5.38s3.16.7 7.26-.63l3.43-1.09a109.33 109.33 0 0112.58-2.8 2.15 2.15 0 001.59-1.16c3.43-6.91 3.85-15.22 4-22.47q0-1.31.06-2.79c.19-7.77.45-18.93-2.95-32a1 1 0 011.93-.64 93 93 0 016.66 25.55c2.55 22.58-1.9 32.09-1.94 32.17a1.61 1.61 0 00.95 2.25 17.12 17.12 0 016.95 4.67c1.46 1.66.93 2.4-1.14 1.62a36.26 36.26 0 00-12.77-2.29c-10.4 0-18.09 4.95-21.51 9.19-3.19 3.94-3.7 7.67-3.83 11.27l-.06.05c-7.48-.75-12.94 1.21-17.47 6.21l-.08.09c-6.26 7.75-4 24.63-1.29 38.48 1.28 6.45 5.59 25.52 1.73 37.68zm96.1 10.07c-15.71 6.71-25.43 14.51-34 21.39-5.65 4.53-11 8.81-17.28 12.14-10.12 5.34-24.91 6.53-33.27-7.7-2.37-4-.71-9.86 1.58-17.95 3.05-10.75 7.23-25.46 3.71-44.65-.94-5.12-1.77-9.51-2.49-13.31C334 377 332.9 371.43 334 367c.63-2.45 3.43-3 5.87-3a20.83 20.83 0 012.63.19 29.51 29.51 0 007 12.1c5.7 5.86 13.63 8.83 23.56 8.85 2.1.17 25.94 1.55 36.54-22.4 1.46.18 3.65.7 4.3 2.3 1.28 3.19-.27 8.91-1.52 13.5-.9 3.31-1.68 6.16-1.63 8.37.31 16 11 22.78 25.83 32.16 1.79 1.13 3.66 2.31 5.55 3.54S445 425 445 426c-.52 4.79-20 13.16-26.45 15.91z" fill="currentColor"/></svg><svg fill="currentColor" viewBox="0 0 24 24" id="vk" xmlns="http://www.w3.org/2000/svg"><path d="M19 3H5a2 2 0 00-2 2v14a2 2 0 002 2h14a2 2 0 002-2V5a2 2 0 00-2-2zm-1.093 12.684l-1.735.024s-.374.073-.864-.265c-.649-.446-1.261-1.606-1.738-1.455-.484.154-.469 1.198-.469 1.198s.004.184-.107.304c-.12.129-.355.116-.355.116h-.777s-1.714.142-3.225-1.433c-1.646-1.717-3.1-5.106-3.1-5.106s-.085-.214.006-.323c.103-.121.381-.124.381-.124l1.857-.009s.175.031.301.123c.103.076.162.219.162.219s.3.761.698 1.45c.776 1.343 1.137 1.637 1.4 1.493.384-.21.269-1.898.269-1.898s.007-.613-.193-.886c-.156-.213-.449-.276-.578-.292-.105-.014.066-.257.289-.367.334-.163.925-.173 1.622-.166.543.006.7.039.912.091.641.155.423.753.423 2.188 0 .46-.083 1.106.248 1.319.143.092.491.014 1.36-1.466.413-.702.722-1.527.722-1.527s.068-.147.173-.21c.108-.065.253-.045.253-.045l1.955-.012s.587-.071.683.196c.1.279-.219.93-1.018 1.995-1.311 1.75-1.457 1.587-.368 2.599 1.04.967 1.255 1.437 1.291 1.496.43.716-.478.773-.478.773z"/></svg><svg viewBox="0 0 24 24" id="windows" xmlns="http://www.w3.org/2000/svg"><path d="M3 12V6.75l6-1.32v6.48L3 12m17-9v8.75l-10 .15V5.21L20 3M3 13l6 .09v6.81l-6-1.15V13m17 .25V22l-10-1.91V13.1l10 .15z" fill="currentColor"/></svg><svg viewBox="0 0 24 24" id="youtube" xmlns="http://www.w3.org/2000/svg"><path d="M10 15l5.19-3L10 9v6m11.56-7.83c.13.47.22 1.1.28 1.9.07.8.1 1.49.1 2.09L22 12c0 2.19-.16 3.8-.44 4.83-.25.9-.83 1.48-1.73 1.73-.47.13-1.33.22-2.65.28-1.3.07-2.49.1-3.59.1L12 19c-4.19 0-6.8-.16-7.83-.44-.9-.25-1.48-.83-1.73-1.73-.13-.47-.22-1.1-.28-1.9-.07-.8-.1-1.49-.1-2.09L2 12c0-2.19.16-3.8.44-4.83.25-.9.83-1.48 1.73-1.73.47-.13 1.33-.22 2.65-.28 1.3-.07 2.49-.1 3.59-.1L12 5c4.19 0 6.8.16 7.83.44.9.25 1.48.83 1.73 1.73z" fill="currentColor"/></svg></svg>