<svg width="33" height="28" viewBox="0 0 33 28" fill="none" xmlns="http://www.w3.org/2000/svg">
<path d="M19.2632 16.0881H13.7405C13.6799 16.0881 13.6248 16.1265 13.6027 16.1813L8.41079 27.2543C8.37221 27.353 8.44386 27.4572 8.54858 27.4517H24.4441C24.5488 27.4517 24.6149 27.3421 24.5819 27.2488L19.3899 16.1758C19.3734 16.1265 19.3183 16.0881 19.2632 16.0881Z" fill="#57D6FF"/>
<path d="M8.48247 24.2982L12.9855 14.7663C12.9965 14.7389 13.002 14.706 12.991 14.6731L6.47624 0.77015C6.43215 0.605618 6.18964 0.627556 6.18964 0.803057L8.20689 24.2434C8.19586 24.3969 8.42184 24.4463 8.48247 24.2982Z" fill="#57D6FF"/>
<path d="M0.407926 9.26549L4.65738 0.0626718C4.74556 -0.057985 4.92745 0.00782761 4.92194 0.155906L7.15965 25.6255C7.15414 25.779 6.93919 25.8229 6.87856 25.6803L0.159903 11.3221C-0.121189 10.6421 -0.0274918 9.86329 0.407926 9.26549Z" fill="#57D6FF"/>
<path d="M24.7969 24.2434L26.8141 0.803081C26.8141 0.633064 26.5716 0.605642 26.5275 0.770174L20.0128 14.6731C20.0018 14.706 20.0073 14.7389 20.0183 14.7664L24.5213 24.2982C24.5819 24.4463 24.8079 24.397 24.7969 24.2434Z" fill="#57D6FF"/>
<path d="M32.8383 11.3222L26.1197 25.6803C26.059 25.8284 25.8441 25.7845 25.8386 25.6255L28.0763 0.155922C28.0708 0.00784303 28.2527 -0.0524852 28.3408 0.0626872L32.5958 9.26551C33.0312 9.86331 33.1194 10.6421 32.8383 11.3222Z" fill="#57D6FF"/>
</svg>
